<svg xmlns="http://www.w3.org/2000/svg" class="icon icon-tabler icon-tabler-shirt-filled" width="24"
  height="24" viewBox="0 0 24 24" stroke-width="2" stroke="currentColor" fill="none"
  stroke-linecap="round" stroke-linejoin="round">
  <defs>
    <linearGradient id="rainbowGradient" x1="0%" y1="0%" x2="100%" y2="0%">
      <stop offset="0%" style="stop-color:#FF0000;stop-opacity:1" /> <!-- Rojo -->
      <stop offset="16.67%" style="stop-color:#FF7F00;stop-opacity:1" /> <!-- Naranja -->
      <stop offset="33.33%" style="stop-color:#FFFF00;stop-opacity:1" /> <!-- Amarillo -->
      <stop offset="50%" style="stop-color:#00FF00;stop-opacity:1" /> <!-- Verde -->
      <stop offset="66.67%" style="stop-color:#0000FF;stop-opacity:1" /> <!-- Azul -->
      <stop offset="83.33%" style="stop-color:#4B0082;stop-opacity:1" /> <!-- Ãndigo -->
      <stop offset="100%" style="stop-color:#8B00FF;stop-opacity:1" /> <!-- Violeta -->
    </linearGradient>
  </defs>
  <path stroke="none" d="M0 0h24v24H0z" fill="none"></path>
  <path
    d="M14.883 3.007l.095 -.007l.112 .004l.113 .017l.113 .03l6 2a1 1 0 0 1 .677 .833l.007 .116v5a1 1 0 0 1 -.883 .993l-.117 .007h-2v7a2 2 0 0 1 -1.85 1.995l-.15 .005h-10a2 2 0 0 1 -1.995 -1.85l-.005 -.15v-7h-2a1 1 0 0 1 -.993 -.883l-.007 -.117v-5a1 1 0 0 1 .576 -.906l.108 -.043l6 -2a1 1 0 0 1 1.316 .949a2 2 0 0 0 3.995 .15l.009 -.24l.017 -.113l.037 -.134l.044 -.103l.05 -.092l.068 -.093l.069 -.08c.056 -.054 .113 -.1 .175 -.14l.096 -.053l.103 -.044l.108 -.032l.112 -.02z"
    stroke-width="0" fill="url(#rainbowGradient)"></path>
</svg>